<svg width="89" height="90" viewBox="0 0 89 90" fill="none" xmlns="http://www.w3.org/2000/svg">
<path d="M4.64478 4.42578H85.1857V85.2804H4.64478V4.42578Z" fill="url(#paint0_radial)"/>
<path d="M4.64466 4.42575H85.1856V85.2803H4.64466V4.42575ZM0.98291 89.0596H88.8297V0.646484H0.98291V89.0596ZM60.2223 36.9311C57.3351 36.9311 56.3493 38.4392 56.3493 39.6929C56.3493 41.0556 57.0007 42.0004 60.8913 44.0717C66.6304 46.9425 68.426 49.7043 68.426 53.7379C68.426 59.7884 63.9545 63.0408 57.9161 63.0408C54.7297 63.0408 51.9834 62.3685 50.4165 61.4237C50.1525 61.3146 50.1173 61.1148 50.1173 60.8241V55.246C50.1173 54.8645 50.2933 54.7554 50.5574 54.9371C52.8636 56.4815 55.5043 57.172 57.9161 57.172C60.8032 57.172 62.018 55.9183 62.018 54.2285C62.018 52.8658 61.1729 51.6666 57.476 49.6861C52.2826 47.1242 50.1173 44.526 50.1173 40.1653C50.1173 35.2958 53.8142 31.244 60.2223 31.244C63.3735 31.244 65.5741 31.7346 66.7712 32.2979C67.0705 32.4796 67.1409 32.7884 67.1409 33.061V38.2393C67.1409 38.5482 66.9648 38.7299 66.5952 38.6209C64.9755 37.567 62.5989 36.9311 60.2223 36.9311ZM28.7453 41.419C29.5903 41.4917 30.2417 41.4917 31.7029 41.4917C35.9808 41.4917 40.0122 39.9472 40.0122 33.9331C40.0122 29.1364 37.1251 26.7198 32.2486 26.7198C30.7875 26.7198 29.3967 26.7925 28.7277 26.8288L28.7453 41.419ZM22.214 21.3598C22.214 21.0872 22.7246 20.9055 23.0238 20.9055C25.3652 20.7965 28.8509 20.7238 32.4599 20.7238C42.6001 20.7238 46.5611 26.4654 46.5611 33.7878C46.5611 43.3813 39.8186 47.5058 31.5444 47.5058C30.1537 47.5058 29.6784 47.4331 28.6925 47.4331V61.9324C28.6925 62.2413 28.5869 62.3867 28.2524 62.3867H22.6541C22.3549 62.3867 22.214 62.2776 22.214 61.9324V21.3598Z" fill="#31C5F0"/>
<defs>
<radialGradient id="paint0_radial" cx="0" cy="0" r="1" gradientUnits="userSpaceOnUse" gradientTransform="translate(31.1788 22.5656) scale(61.2021 61.1565)">
<stop stop-color="#34364E" stop-opacity="0.98"/>
<stop offset="1" stop-color="#0C0824"/>
</radialGradient>
</defs>
</svg>
