<svg width="22" height="20" viewBox="0 0 22 20" fill="none" xmlns="http://www.w3.org/2000/svg">
<path d="M9.90454 0.904213C10.2019 -0.0212156 11.5113 -0.0212164 11.8086 0.904212L13.52 6.23011C13.6529 6.64371 14.0377 6.92418 14.4721 6.92418H20.0337C20.9997 6.92418 21.4043 8.15814 20.6258 8.73008L16.1073 12.0495C15.7607 12.3042 15.6157 12.7519 15.7473 13.1614L17.4687 18.5183C17.7654 19.4416 16.7061 20.2043 15.9246 19.6301L11.4486 16.3419C11.0964 16.0831 10.6168 16.0831 10.2645 16.3419L5.78861 19.6301C5.00708 20.2043 3.94783 19.4416 4.2445 18.5183L5.96588 13.1614C6.09745 12.7519 5.95248 12.3042 5.60588 12.0495L1.08744 8.73009C0.308909 8.15814 0.713452 6.92418 1.67949 6.92418H7.24108C7.6755 6.92418 8.06023 6.64371 8.19314 6.23011L9.90454 0.904213Z" fill="#070707"/>
</svg>
