<svg width="21" height="20" viewBox="0 0 21 20" fill="none" xmlns="http://www.w3.org/2000/svg">
<path d="M9.35986 0.904213C9.65723 -0.0212156 10.9666 -0.0212164 11.264 0.904212L12.9754 6.23011C13.1083 6.64371 13.493 6.92418 13.9274 6.92418H19.489C20.4551 6.92418 20.8596 8.15814 20.0811 8.73008L15.5626 12.0495C15.216 12.3042 15.0711 12.7519 15.2026 13.1614L16.924 18.5183C17.2207 19.4416 16.1614 20.2043 15.3799 19.6301L10.904 16.3419C10.5517 16.0831 10.0721 16.0831 9.71986 16.3419L5.24393 19.6301C4.4624 20.2043 3.40315 19.4416 3.69983 18.5183L5.4212 13.1614C5.55278 12.7519 5.4078 12.3042 5.0612 12.0495L0.542758 8.73009C-0.235769 8.15814 0.168774 6.92418 1.13481 6.92418H6.6964C7.13083 6.92418 7.51556 6.64371 7.64846 6.23011L9.35986 0.904213Z" fill="#E5E5E5"/>
</svg>
